inDegrees=yes
name=ik_S53_A05_T02
DataType=double
version=3
OpenSimVersion=4.3-2021-08-27-4bc7ad9
endheader
time	pelvis_tilt	pelvis_list	pelvis_rotation	pelvis_tx	pelvis_ty	pelvis_tz	hip_flexion_r	hip_adduction_r	hip_rotation_r	knee_angle_r	knee_angle_r_beta	ankle_angle_r	subtalar_angle_r	mtp_angle_r	hip_flexion_l	hip_adduction_l	hip_rotation_l	knee_angle_l	knee_angle_l_beta	ankle_angle_l	subtalar_angle_l	mtp_angle_l	lumbar_extension	lumbar_bending	lumbar_rotation	arm_flex_r	arm_add_r	arm_rot_r	elbow_flex_r	pro_sup_r	wrist_flex_r	wrist_dev_r	arm_flex_l	arm_add_l	arm_rot_l	elbow_flex_l	pro_sup_l	wrist_flex_l	wrist_dev_l
10.90000000000012	-3.049180418399363	-2.625556460091145	30.36699201543981	0	0.9399999999999999	0	23.44232372668033	-8.411932004221887	-7.275762469868023	26.06999271424706	0.4550072088345444	0	0	0	23.44232372668033	-8.411932004221887	-7.275762469868023	26.06999271424706	0.4550072088345444	0	0	0	-1.458066091008976	-1.321071374150404	2.093098078714083	68.43774672888848	-6.252917105335202	-5.746361004076256	25.79600746954669	107.7495923260185	0	0	33.22461406728841	-10.33298021422961	-7.332655502157571	24.45706245385125	124.3982065069861	0	0
10.91666666666679	-3.048720147457797	-2.61568681692574	30.37198560429427	0	0.9399999999999999	0	23.48341648101361	-8.41802163796765	-7.284533374278728	26.11221346937895	0.4557441000242742	0	0	0	23.48341648101361	-8.41802163796765	-7.284533374278728	26.11221346937895	0.4557441000242742	0	0	0	-1.456503736826975	-1.311582625677383	2.082426023568503	68.43783423464899	-6.258401757377914	-5.718411698536102	25.80014604064333	107.7451622505895	0	0	33.21791244667829	-10.32453345636007	-7.368207624446439	24.4438226697484	124.4116636008409	0	0
10.93333333333346	-3.049391133360968	-2.620576728923917	30.36857949769211	0	0.9399999999999999	0	23.48865975662165	-8.419253373881091	-7.285894398164864	26.1176220682075	0.455838497881752	0	0	0	23.48865975662165	-8.419253373881091	-7.285894398164864	26.1176220682075	0.455838497881752	0	0	0	-1.460149096363401	-1.315012303869075	2.074286602907185	68.85211330850609	-6.353015579700099	-5.502787511453865	26.05146153394068	107.592787568042	0	0	33.22411816611535	-10.33428714407252	-7.375274768994401	24.45703575838428	124.4447924432583	0	0
10.95000000000012	-3.028977131923334	-2.610976441110899	30.37286766477166	0	0.9399999999999999	0	23.49411218337083	-8.420513119415629	-7.28729558949945	26.12332117371659	0.4559379660373041	0	0	0	23.49411218337083	-8.420513119415629	-7.28729558949945	26.12332117371659	0.4559379660373041	0	0	0	-1.437719709418224	-1.317264221458253	2.07978607113323	69.21693388022007	-6.419570832767516	-5.220836528085252	25.62249463248745	107.3127335311966	0	0	33.19820544512501	-10.34740133858139	-7.303056922319338	24.41765994046782	124.416309047724	0	0
10.96666666666679	-3.05377659923	-2.625978893410082	30.36903818684389	0	0.9399999999999999	0	23.50022968774945	-8.421950393768464	-7.288883952357476	26.12962528015395	0.4560479934510321	0	0	0	23.50022968774945	-8.421950393768464	-7.288883952357476	26.12962528015395	0.4560479934510321	0	0	0	-1.466959087313189	-1.317706408498797	2.081896585667977	69.66530269366005	-6.565478116614991	-5.074929886663415	26.47469121891754	107.1644270185578	0	0	33.25519705950325	-10.34909320479984	-7.257849206337232	24.41645440664438	124.3845840587787	0	0
10.98333333333346	-3.015407912545055	-2.616131120787641	30.38146108082701	0	0.9399999999999999	0	23.50514961554251	-8.423092953515312	-7.290152524401902	26.13474110523172	0.4561372814425954	0	0	0	23.50514961554251	-8.423092953515312	-7.290152524401902	26.13474110523172	0.4561372814425954	0	0	0	-1.428465670956017	-1.329356622830397	2.097872986415377	69.90035667672234	-6.617856911626633	-4.974024596221883	26.16294944504293	107.0386100116537	0	0	33.19595565742067	-10.35127551110029	-7.216388644569838	24.38868353327021	124.3882251492481	0	0
11.00000000000013	-3.033288124065874	-2.619131598427488	30.37484942146016	0	0.9399999999999999	0	23.513550483707	-8.425070176396471	-7.292336532112429	26.14337722997075	0.4562880102539043	0	0	0	23.513550483707	-8.425070176396471	-7.292336532112429	26.14337722997075	0.4562880102539043	0	0	0	-1.446047126802878	-1.322709610159827	2.094001873096307	70.28630724979578	-6.74628499252442	-4.863297937071705	26.96916691515737	106.8661966038051	0	0	33.25687356351312	-10.34155812875622	-7.236962376911952	24.36039717023275	124.4179532300851	0	0
11.01666666666679	-3.01007344091696	-2.616982893386758	30.38536692950471	0	0.9399999999999999	0	23.51784789114891	-8.426063543947318	-7.293441699408528	26.14785822331083	0.4563662183414487	6.774926046203269e-36	0	0	23.51784789114891	-8.426063543947318	-7.293441699408528	26.14785822331083	0.4563662183414487	6.774926046203269e-36	0	0	-1.424564822949771	-1.333281730484067	2.108835217211973	70.47885260080076	-6.818881537224505	-4.791844905347665	26.74523053624651	106.7655198397361	0	-6.774839581379131e-36	33.22737914394105	-10.3498969034929	-7.223988164094255	24.33776026846713	124.4294423890449	0	-6.774839581379131e-36
11.03333333333346	-3.014471906678526	-2.610921672740059	30.38745382736199	0	0.9399999999999999	0	23.55253912185019	-8.433911594828157	-7.302304262590992	26.1832521650323	0.4569839591597473	0	0	0	23.55253912185019	-8.433911594828157	-7.302304262590992	26.1832521650323	0.4569839591597473	0	0	0	-1.427919597275213	-1.325243246285228	2.108095291879937	70.47340687964963	-6.837099470589317	-4.770822659410131	26.78712365596948	106.7487756898863	0	0	33.21778458302234	-10.35996621894986	-7.202760549417391	24.37773592805604	124.387894782486	0	0
11.05000000000013	-3.017398870810949	-2.608946243386141	30.39180873808377	0	0.9399999999999999	0	23.56079216291178	-8.435845723793715	-7.304445740778041	26.19173712727137	0.4571320496877265	0	0	0	23.56079216291178	-8.435845723793715	-7.304445740778041	26.19173712727137	0.4571320496877265	0	0	0	-1.430046746383889	-1.321817455028549	2.105324761474861	70.73854802335491	-6.929298427891158	-4.731021328914925	27.44767792383823	106.6532763231401	0	0	33.259718143306	-10.34385489677773	-7.228093288386468	24.30532147005429	124.4312410508281	0	0
11.0666666666668	-3.001895435311387	-2.600369172471943	30.38963704978466	0	0.9399999999999999	0	23.53677777954618	-8.432040301894114	-7.299219278138153	26.1667534576756	0.45669600239405	0	0	0	23.53677777954618	-8.432040301894114	-7.299219278138153	26.1667534576756	0.45669600239405	0	0	0	-1.410152768927081	-1.322966261604861	2.111952423390412	70.83865868850278	-6.939539647292087	-4.73874011070297	27.33308695108407	106.6610693378316	0	0	33.23672614876511	-10.34813852983614	-7.236859154700852	24.25729644544834	124.457741289726	0	0
11.08333333333346	-3.00554820501623	-2.596086245699196	30.36971778292119	0	0.9399999999999999	0	23.54278774442048	-8.433445708635807	-7.30077676881729	26.17294557934873	0.4568040753049302	0	0	0	23.54278774442048	-8.433445708635807	-7.30077676881729	26.17294557934873	0.4568040753049302	0	0	0	-1.411454227676652	-1.317442031675463	2.113822220233997	71.02044673863625	-7.009171687663644	-4.750957928244773	27.88233056071687	106.7333581992091	0	0	33.23941263569247	-10.34839986189061	-7.230418264432735	24.26019743869209	124.4440934998005	0	0
